<svg id="Layer_1" data-name="Layer 1" xmlns="http://www.w3.org/2000/svg" xmlns:xlink="http://www.w3.org/1999/xlink" viewBox="0 0 538 538"><defs><style>.cls-1{fill:#307cc5;}.cls-2{fill:#fcfcfc;}.cls-3{fill:#308bd6;}.cls-4{fill:url(#linear-gradient);}.cls-5{fill:url(#New_Gradient_Swatch_1);}</style><linearGradient id="linear-gradient" x1="930" y1="52" x2="930" y2="554" gradientUnits="userSpaceOnUse"><stop offset="0" stop-color="#307cc5"/><stop offset="0.5" stop-color="#308bd6"/><stop offset="1" stop-color="#307cc5"/></linearGradient><linearGradient id="New_Gradient_Swatch_1" x1="679" y1="303" x2="1181" y2="303" gradientUnits="userSpaceOnUse"><stop offset="0" stop-color="#307cc5"/><stop offset="0.05" stop-color="#307fc9"/><stop offset="0.25" stop-color="#3088d3"/><stop offset="0.5" stop-color="#308bd6"/><stop offset="0.75" stop-color="#3088d3"/><stop offset="0.95" stop-color="#307fc9"/><stop offset="1" stop-color="#307cc5"/></linearGradient></defs><path class="cls-1" d="M679,303V504a50.15,50.15,0,0,0,50,50H930V303Z" transform="translate(-679 -52)"/><rect class="cls-2" x="114" y="326" width="22" height="101"/><rect class="cls-2" x="793" y="378" width="22" height="101" transform="translate(-303.5 1180.5) rotate(-90)"/><path class="cls-3" d="M930,303V590h229.83A57.34,57.34,0,0,0,1217,532.83V303Z" transform="translate(-679 -52)"/><rect class="cls-2" x="1060.35" y="359.03" width="25.16" height="115.49" transform="translate(-22.84 1437.7) rotate(-90)"/><rect class="cls-2" x="1060.92" y="417.91" width="25.16" height="115.49" transform="translate(-81.16 1497.16) rotate(-90)"/><path class="cls-1" d="M930,52H729a50.15,50.15,0,0,0-50,50V303H930Z" transform="translate(-679 -52)"/><rect class="cls-2" x="793" y="127" width="22" height="101" transform="translate(-569.03 568.5) rotate(-45)"/><rect class="cls-2" x="793" y="127" width="22" height="101" transform="translate(568 819.53) rotate(-135)"/><path class="cls-1" d="M1181,303V102a50.15,50.15,0,0,0-50-50H930V303Z" transform="translate(-679 -52)"/><rect class="cls-2" x="1044.5" y="127.5" width="22" height="101" transform="translate(198.5 1181.5) rotate(-90)"/><path class="cls-4" d="M930,554l-.3-15.69-.23-15.69L929,491.25l-.56-62.75c-.37-41.83-.42-83.67-.47-125.5l.11-62.75c.12-20.92.12-41.83.35-62.75l.56-62.75.45-31.37.23-15.69L930,52l.3,15.69.23,15.69.45,31.37.56,62.75c.23,20.92.23,41.83.35,62.75L932,303c0,41.83-.1,83.67-.47,125.5L931,491.25l-.44,31.37-.23,15.69Z" transform="translate(-679 -52)"/><path class="cls-5" d="M1181,303l-15.69.3-15.69.23-31.37.44-62.75.56c-41.83.37-83.67.42-125.5.47l-62.75-.11c-20.92-.12-41.83-.12-62.75-.35L741.75,304l-31.37-.45-15.69-.23L679,303l15.69-.3,15.69-.23,31.37-.45,62.75-.56c20.92-.23,41.83-.23,62.75-.35L930,301c41.83.05,83.67.1,125.5.47l62.75.56,31.37.44,15.69.23Z" transform="translate(-679 -52)"/></svg>